<svg width="36" height="12" viewBox="0 0 36 12" fill="none" xmlns="http://www.w3.org/2000/svg">
<g clip-path="url(#clip0_5_5982)">
<path d="M30.6688 1.18608H12.9688V0.1875H30.6688V1.18608Z" fill="black"/>
<path d="M30.8236 8.01941H0.892578V7.02084H30.6986C31.6567 7.06085 32.5976 6.75849 33.3526 6.16805C33.618 5.89846 33.8239 5.57627 33.9569 5.22228C34.0898 4.8683 34.147 4.4904 34.1246 4.11298C34.1459 3.73884 34.0881 3.3644 33.9551 3.01398C33.8221 2.66355 33.6169 2.34496 33.3526 2.07889C32.5663 1.46751 31.5882 1.15469 30.5926 1.19615L30.5346 0.19757C31.8034 0.140826 33.0488 0.551248 34.0346 1.35092C34.7336 2.10598 35.1214 3.09669 35.1204 4.12495C35.1195 5.1532 34.7299 6.14321 34.0296 6.89701C33.1304 7.64315 31.9925 8.04152 30.8236 8.01941Z" fill="black"/>
<path d="M4.5155 4.60736L1.6015 7.51621L4.5155 10.4251L3.8085 11.1311L0.1875 7.51621L3.8085 3.90137L4.5155 4.60736Z" fill="black"/>
</g>
<defs>
<clipPath id="clip0_5_5982">
<rect width="35" height="10.9375" fill="white" transform="translate(0.1875 0.1875)"/>
</clipPath>
</defs>
</svg>
