<svg width="15" height="17" viewBox="0 0 15 17" fill="none" xmlns="http://www.w3.org/2000/svg">
<g clip-path="url(#clip0_5_5991)">
<path d="M7.00581 0.25L7.30581 0.439814C8.15497 0.959374 9.05454 1.39182 9.99081 1.73055C10.9802 2.05185 11.9972 2.28094 13.0288 2.41488L13.3798 2.45684L13.4578 2.8015C13.4998 2.98732 14.4748 7.397 12.9378 10.6998C11.4008 14.0025 7.42881 16.0026 7.25981 16.0855L7.03381 16.1974L6.80881 16.0825C6.64581 15.9996 2.79181 13.9985 1.25481 10.6998C-0.282195 7.401 0.577805 2.99931 0.614805 2.81349L0.686805 2.45184L1.05381 2.41388C2.17125 2.29245 3.27435 2.06361 4.34781 1.73055C5.19896 1.4318 6.00027 1.00679 6.72481 0.469785L7.00581 0.25ZM12.5478 3.35696C11.5686 3.21311 10.6036 2.98481 9.66381 2.67463C8.76132 2.35149 7.8909 1.94513 7.06381 1.46081C6.32515 1.96932 5.52212 2.3775 4.67581 2.67463C3.65312 3.00069 2.60224 3.23079 1.53681 3.36195C1.37381 4.44389 1.00281 7.78962 2.16181 10.2772C3.35181 12.8317 6.21781 14.601 7.04081 15.0725C7.88181 14.6079 10.8408 12.8377 12.0308 10.2772C13.1948 7.78263 12.7348 4.41992 12.5478 3.35696Z" fill="black"/>
</g>
<defs>
<clipPath id="clip0_5_5991">
<rect width="14" height="15.9375" fill="white" transform="translate(0.34375 0.25)"/>
</clipPath>
</defs>
</svg>
